<svg width="18" height="18" viewBox="0 0 18 18" fill="none" xmlns="http://www.w3.org/2000/svg">
<g clip-path="url(#clip0_11908_20788)">
<path d="M13.3846 8.47748H11.9691C11.7499 7.83071 11.1386 7.36145 10.4178 7.36145C9.69692 7.36145 9.08565 7.82916 8.86646 8.47748H4.92408C4.63543 8.47748 4.40234 8.71211 4.40234 8.99922C4.40234 9.28633 4.63697 9.52096 4.92408 9.52096H8.86646C9.08565 10.1693 9.69692 10.637 10.4178 10.637C11.1386 10.637 11.7499 10.1693 11.9691 9.52096H13.3846C13.6732 9.52096 13.9063 9.28633 13.9063 8.99922C13.9063 8.71211 13.6717 8.47748 13.3846 8.47748ZM11.0105 8.99922C11.0105 9.32646 10.7435 9.59351 10.4162 9.59351C10.089 9.59351 9.82349 9.32646 9.82349 8.99922C9.82349 8.67197 10.089 8.40647 10.4162 8.40647C10.7435 8.40647 11.0105 8.67197 11.0105 8.99922Z" fill="white"/>
<path d="M13.3846 11.8364H9.44222C9.22303 11.1896 8.61176 10.7203 7.8909 10.7203C7.17003 10.7203 6.55876 11.1881 6.33957 11.8364H4.92408C4.63543 11.8364 4.40234 12.071 4.40234 12.3581C4.40234 12.6452 4.63697 12.8798 4.92408 12.8798H6.33957C6.55876 13.5266 7.17003 13.9959 7.8909 13.9959C8.61176 13.9959 9.22303 13.5282 9.44222 12.8798H13.3846C13.6732 12.8798 13.9063 12.6452 13.9063 12.3581C13.9063 12.071 13.6717 11.8364 13.3846 11.8364ZM7.29815 12.3581C7.29815 12.0309 7.56519 11.7654 7.89244 11.7654C8.21968 11.7654 8.48673 12.0324 8.48673 12.3596C8.48673 12.6869 8.21968 12.9524 7.89244 12.9524C7.56365 12.9524 7.29815 12.6869 7.29815 12.3581C7.29815 12.3596 7.29815 12.3596 7.29815 12.3581C7.29815 12.3596 7.29815 12.3596 7.29815 12.3581Z" fill="white"/>
<path d="M13.3846 5.11859H9.44222C9.22303 4.47182 8.61176 4.00256 7.8909 4.00256C7.17003 4.00256 6.55876 4.47028 6.33957 5.11859H4.92408C4.63543 5.11859 4.40234 5.35322 4.40234 5.64033C4.40234 5.92744 4.63697 6.16207 4.92408 6.16207H6.33957C6.55876 6.80884 7.17003 7.2781 7.8909 7.2781C8.61176 7.2781 9.22303 6.81038 9.44222 6.16207H13.3846C13.6732 6.16207 13.9063 5.92744 13.9063 5.64033C13.9063 5.35322 13.6717 5.11859 13.3846 5.11859ZM7.29815 5.64033C7.29815 5.31309 7.56519 5.04759 7.89244 5.04759C8.21968 5.04759 8.48673 5.31309 8.48673 5.64033C8.48673 5.96758 8.21968 6.23308 7.89244 6.23308C7.56365 6.23462 7.29815 5.96758 7.29815 5.64033Z" fill="white"/>
<path d="M15.8189 0H2.18112C0.978647 0 0 0.978647 0 2.18112V15.8173C0 17.0198 0.978647 17.9985 2.18112 17.9985H15.8173C17.0198 17.9985 17.9985 17.0198 17.9985 15.8173V2.18112C18 0.978647 17.0214 0 15.8189 0ZM16.9195 2.18112V15.8173C16.9195 16.424 16.4255 16.9179 15.8189 16.9179H2.18112C1.57448 16.9179 1.08052 16.424 1.08052 15.8173V2.18112C1.08052 1.57448 1.57448 1.08052 2.18112 1.08052H15.8173C16.4255 1.08052 16.9195 1.57448 16.9195 2.18112Z" fill="white"/>
</g>
<defs>
<clipPath id="clip0_11908_20788">
<rect width="18" height="18" fill="white"/>
</clipPath>
</defs>
</svg>
