<svg width="10" height="10" viewBox="0 0 10 10" fill="none" xmlns="http://www.w3.org/2000/svg">
<g clip-path="url(#clip0_6074_15048)">
<path d="M7.24007 9.50039C7.16343 9.50039 7.08374 9.49119 7.0071 9.46973L0.680307 7.77457C0.192923 7.63969 -0.0982817 7.1339 0.0304612 6.6465L0.726286 3.97961C0.769201 3.81715 0.934727 3.71599 1.10025 3.7589C1.26272 3.80182 1.36387 3.97042 1.32096 4.13288L0.625131 6.79977C0.582217 6.96531 0.680307 7.1339 0.842768 7.17988L7.16343 8.87198C7.3259 8.9149 7.49449 8.81987 7.5374 8.6574L7.75197 7.78683C7.79182 7.6213 7.96041 7.52321 8.12288 7.56306C8.2884 7.60291 8.38649 7.7715 8.34664 7.93397L8.12901 8.81067C8.02172 9.22757 7.64775 9.50039 7.24007 9.50039Z" fill="white"/>
<path d="M8.89537 7.04462H2.55631C2.04747 7.04462 1.63672 6.63079 1.63672 6.125V1.41962C1.63672 0.910763 2.05054 0.5 2.55631 0.5H8.89537C9.40421 0.5 9.81496 0.913828 9.81496 1.41962V6.125C9.81802 6.63079 9.40421 7.04462 8.89537 7.04462ZM2.55631 1.11308C2.38772 1.11308 2.24978 1.25102 2.24978 1.41962V6.125C2.24978 6.2936 2.38772 6.43154 2.55631 6.43154H8.89537C9.06396 6.43154 9.2019 6.2936 9.2019 6.125V1.41962C9.2019 1.25102 9.06396 1.11308 8.89537 1.11308H2.55631Z" fill="white"/>
<path d="M3.68172 3.36348C3.23112 3.36348 2.86328 2.99564 2.86328 2.54502C2.86328 2.09441 3.23112 1.72656 3.68172 1.72656C4.13232 1.72656 4.50016 2.09441 4.50016 2.54502C4.50016 2.99564 4.13232 3.36348 3.68172 3.36348ZM3.68172 2.34271C3.5683 2.34271 3.47634 2.43467 3.47634 2.54809C3.47634 2.66151 3.5683 2.75347 3.68172 2.75347C3.79513 2.75347 3.88709 2.66151 3.88709 2.54809C3.88709 2.4316 3.79513 2.34271 3.68172 2.34271Z" fill="white"/>
<path d="M1.9489 6.62771C1.8692 6.62771 1.79257 6.59706 1.73126 6.53882C1.61171 6.41927 1.61171 6.22308 1.73126 6.10353L3.57964 4.2551C3.85859 3.97615 4.31532 3.97615 4.59426 4.2551L5.08777 4.74863L6.60817 2.92471C6.74304 2.76225 6.94229 2.66722 7.15379 2.66722C7.38062 2.65496 7.56454 2.75918 7.70248 2.91858L9.73785 5.29427C9.8482 5.42301 9.83287 5.61613 9.70413 5.72649C9.57539 5.83684 9.38227 5.82151 9.27192 5.69277L7.23349 3.31709C7.2059 3.28337 7.17218 3.28643 7.15379 3.2803C7.1354 3.2803 7.10168 3.28643 7.07409 3.31709L5.33913 5.39849C5.28395 5.46593 5.20426 5.50578 5.11843 5.50884C5.02953 5.51497 4.94677 5.48125 4.88853 5.41995L4.15592 4.68732C4.10381 4.63521 4.0609 4.63521 4.00879 4.68732L2.16654 6.53882C2.10829 6.59706 2.0286 6.62771 1.9489 6.62771Z" fill="white"/>
</g>
<defs>
<clipPath id="clip0_6074_15048">
<rect width="9.81818" height="9" fill="white" transform="translate(0 0.5)"/>
</clipPath>
</defs>
</svg>
