<svg width="14" height="14" viewBox="0 0 14 14" fill="none" xmlns="http://www.w3.org/2000/svg">
<rect width="14" height="14" rx="7" fill="white"/>
<path d="M9.92432 6.38501L9.46833 5.01701C9.40218 4.81784 9.27494 4.64458 9.1047 4.52185C8.93445 4.39912 8.72986 4.33316 8.51999 4.33334H5.48066C5.27079 4.33316 5.0662 4.39912 4.89595 4.52185C4.72571 4.64458 4.59847 4.81784 4.53233 5.01701L4.07633 6.38501C3.95507 6.43575 3.85151 6.5212 3.77868 6.63063C3.70585 6.74005 3.66699 6.86856 3.66699 7.00001V8.66668C3.66699 8.91268 3.80166 9.12534 4.00033 9.24101V10C4.00033 10.0884 4.03544 10.1732 4.09796 10.2357C4.16047 10.2982 4.24525 10.3333 4.33366 10.3333H4.66699C4.7554 10.3333 4.84018 10.2982 4.90269 10.2357C4.96521 10.1732 5.00033 10.0884 5.00033 10V9.33334H9.00033V10C9.00033 10.0884 9.03544 10.1732 9.09796 10.2357C9.16047 10.2982 9.24525 10.3333 9.33366 10.3333H9.66699C9.7554 10.3333 9.84018 10.2982 9.90269 10.2357C9.96521 10.1732 10.0003 10.0884 10.0003 10V9.24101C10.1015 9.18301 10.1855 9.09939 10.244 8.99856C10.3026 8.89773 10.3335 8.78326 10.3337 8.66668V7.00001C10.3337 6.86856 10.2948 6.74005 10.222 6.63063C10.1491 6.5212 10.0456 6.43575 9.92432 6.38501ZM5.48066 5.00001H8.51966C8.66333 5.00001 8.79066 5.09134 8.83599 5.22801L9.20466 6.33334H4.79599L5.16433 5.22801C5.18644 5.16161 5.2289 5.10385 5.28568 5.06293C5.34245 5.02201 5.41067 4.99999 5.48066 5.00001ZM4.83366 8.33334C4.76798 8.33332 4.70294 8.32036 4.64227 8.29521C4.58159 8.27005 4.52647 8.23319 4.48004 8.18673C4.43361 8.14027 4.39678 8.08512 4.37167 8.02443C4.34655 7.96374 4.33364 7.89869 4.33366 7.83301C4.33368 7.76733 4.34664 7.70229 4.3718 7.64162C4.39695 7.58094 4.43381 7.52582 4.48027 7.47939C4.52673 7.43296 4.58188 7.39614 4.64257 7.37102C4.70327 7.3459 4.76831 7.33299 4.83399 7.33301C4.96664 7.33305 5.09385 7.38579 5.18761 7.47962C5.28138 7.57345 5.33404 7.70069 5.33399 7.83334C5.33395 7.966 5.28121 8.0932 5.18738 8.18697C5.09355 8.28073 4.96631 8.33339 4.83366 8.33334ZM9.16699 8.33334C9.10131 8.33332 9.03627 8.32036 8.9756 8.29521C8.91492 8.27005 8.8598 8.23319 8.81337 8.18673C8.76694 8.14027 8.73012 8.08512 8.705 8.02443C8.67989 7.96374 8.66697 7.89869 8.66699 7.83301C8.66701 7.76733 8.67997 7.70229 8.70513 7.64162C8.73028 7.58094 8.76715 7.52582 8.81361 7.47939C8.86007 7.43296 8.91522 7.39614 8.97591 7.37102C9.0366 7.3459 9.10164 7.33299 9.16733 7.33301C9.29998 7.33305 9.42718 7.38579 9.52095 7.47962C9.61472 7.57345 9.66737 7.70069 9.66733 7.83334C9.66728 7.966 9.61454 8.0932 9.52071 8.18697C9.42688 8.28073 9.29964 8.33339 9.16699 8.33334Z" fill="#0072BC"/>
</svg>
