<svg width="14" height="14" viewBox="0 0 14 14" fill="none" xmlns="http://www.w3.org/2000/svg">
<rect width="14" height="14" rx="7" fill="white"/>
<path d="M9.73011 6.38196C9.56237 6.30833 9.38115 6.27038 9.19795 6.27054H4.40852C4.22534 6.27036 4.04413 6.30825 3.87636 6.38179C3.63925 6.48549 3.43749 6.65601 3.29573 6.87252C3.15397 7.08903 3.07835 7.34215 3.07812 7.60094V9.46349C3.07812 9.53406 3.10616 9.60174 3.15606 9.65164C3.20596 9.70154 3.27364 9.72957 3.3442 9.72957C3.41477 9.72957 3.48245 9.70154 3.53235 9.65164C3.58225 9.60174 3.61028 9.53406 3.61028 9.46349V9.33045C3.61072 9.2953 3.62487 9.26172 3.64973 9.23686C3.67458 9.212 3.70817 9.19785 3.74332 9.19741H9.86315C9.8983 9.19785 9.93189 9.212 9.95675 9.23686C9.98161 9.26172 9.99576 9.2953 9.99619 9.33045V9.46349C9.99619 9.53406 10.0242 9.60174 10.0741 9.65164C10.124 9.70154 10.1917 9.72957 10.2623 9.72957C10.3328 9.72957 10.4005 9.70154 10.4504 9.65164C10.5003 9.60174 10.5284 9.53406 10.5284 9.46349V7.60094C10.5281 7.34218 10.4525 7.08909 10.3107 6.87261C10.1689 6.65614 9.9672 6.48564 9.73011 6.38196ZM8.79883 3.87582H4.80764C4.56065 3.87582 4.32378 3.97394 4.14913 4.14859C3.97448 4.32324 3.87636 4.56011 3.87636 4.8071V6.00446C3.87637 6.01477 3.87877 6.02493 3.88338 6.03415C3.88799 6.04337 3.89468 6.0514 3.90292 6.05759C3.91116 6.06378 3.92073 6.06798 3.93087 6.06984C3.94101 6.0717 3.95144 6.07118 3.96134 6.06832C4.1066 6.02584 4.25718 6.00433 4.40852 6.00446H4.47887C4.49529 6.00456 4.51116 5.99859 4.52344 5.98769C4.53572 5.97679 4.54354 5.96174 4.54539 5.94542C4.5599 5.81541 4.6218 5.6953 4.71925 5.60802C4.81671 5.52075 4.9429 5.47243 5.07372 5.4723H6.005C6.13591 5.47231 6.26222 5.52057 6.35978 5.60786C6.45734 5.69514 6.51931 5.81532 6.53383 5.94542C6.53568 5.96174 6.5435 5.97679 6.55578 5.98769C6.56806 5.99859 6.58393 6.00456 6.60035 6.00446H7.00712C7.02354 6.00456 7.03942 5.99859 7.0517 5.98769C7.06398 5.97679 7.07179 5.96174 7.07364 5.94542C7.08814 5.81549 7.14997 5.69545 7.24732 5.60819C7.34467 5.52093 7.47074 5.47256 7.60148 5.4723H8.53275C8.66366 5.47231 8.78997 5.52057 8.88754 5.60786C8.9851 5.69514 9.04707 5.81532 9.06159 5.94542C9.06343 5.96174 9.07125 5.97679 9.08353 5.98769C9.09581 5.99859 9.11169 6.00456 9.12811 6.00446H9.19795C9.3493 6.00439 9.49989 6.02595 9.64513 6.06849C9.65505 6.07135 9.6655 6.07187 9.67565 6.07C9.6858 6.06813 9.69538 6.06392 9.70362 6.05771C9.71187 6.0515 9.71855 6.04345 9.72315 6.03421C9.72775 6.02497 9.73013 6.01478 9.73011 6.00446V4.8071C9.73011 4.56011 9.632 4.32324 9.45735 4.14859C9.2827 3.97394 9.04583 3.87582 8.79883 3.87582Z" fill="#2AC0FC"/>
</svg>
