<svg width="14" height="14" viewBox="0 0 14 14" fill="none" xmlns="http://www.w3.org/2000/svg">
<rect width="14" height="14" rx="7" fill="white"/>
<g clip-path="url(#clip0_12564_1187)">
<path d="M7.07321 3.85692C7.02724 3.83395 6.97296 3.83393 6.92698 3.85693C6.47123 4.08473 6.196 4.56076 6.22602 5.06887L6.28861 6.21937L5.52889 6.4093L5.52889 6.29168C5.52889 6.20132 5.45578 6.12822 5.36543 6.12822C5.27507 6.12822 5.20196 6.20132 5.20196 6.29168L5.20196 6.49105L4.0181 6.78704C3.94531 6.80522 3.89423 6.87053 3.89424 6.94556L3.89424 7.59941C3.89424 7.68976 3.96734 7.76287 4.0577 7.76287L6.37768 7.76287L6.50045 9.2927L5.94619 9.56983C5.89079 9.59759 5.85583 9.65411 5.85583 9.71604L5.85583 10.3699C5.85583 10.4224 5.88105 10.4718 5.92367 10.5026C5.96629 10.5331 6.0209 10.5418 6.07102 10.5249L7.0001 10.2152L7.92918 10.5249C7.97675 10.5411 8.03222 10.5343 8.07652 10.5026C8.11914 10.4718 8.14437 10.4224 8.14438 10.3699L8.14437 9.71605C8.14437 9.65411 8.10942 9.59759 8.05402 9.56983L7.49977 9.29269L7.62251 7.76287L9.94249 7.76287C10.0328 7.76287 10.106 7.68975 10.106 7.5994L10.106 6.94554C10.106 6.8705 10.0549 6.80521 9.9821 6.78701L8.79824 6.49102L8.79823 6.29166C8.79824 6.20132 8.72512 6.1282 8.63476 6.1282C8.54442 6.12818 8.4713 6.20131 8.4713 6.29166L8.4713 6.40929L7.71161 6.21935L7.77418 5.0695C7.80418 4.56075 7.52896 4.08472 7.07321 3.85692Z" fill="#F9AC45"/>
</g>
<defs>
<clipPath id="clip0_12564_1187">
<rect width="7.63636" height="7.63636" fill="white" transform="translate(3.30859 3.30908)"/>
</clipPath>
</defs>
</svg>
