<svg width="14" height="14" viewBox="0 0 14 14" fill="none" xmlns="http://www.w3.org/2000/svg">
<rect width="14" height="14" rx="7" fill="white"/>
<g clip-path="url(#clip0_12564_1198)">
<path d="M3.00039 8.06121C3.03483 7.84991 3.1622 7.69808 3.30874 7.55193C4.75032 6.11407 6.18955 4.67445 7.62839 3.23424C7.8033 3.05913 8.00561 2.9705 8.25506 3.01159C8.40689 3.03663 8.53504 3.10785 8.63679 3.22231C8.73579 3.33363 8.75868 3.46687 8.72855 3.60951C8.67513 3.8619 8.81718 4.00864 9.06703 3.95444C9.23685 3.91766 9.38047 3.96149 9.50216 4.08318C9.63834 4.21936 9.77392 4.35612 9.91108 4.49171C10.0404 4.61967 10.0838 4.76915 10.042 4.94758C9.9909 5.16554 10.1431 5.32852 10.3591 5.27628C10.6632 5.20252 10.8723 5.38389 10.9596 5.63922C11.0553 5.9192 10.9766 6.15926 10.7708 6.36509C9.76179 7.3731 8.7532 8.38209 7.74441 9.39088C7.31006 9.82523 6.87336 10.2576 6.44214 10.6953C6.29833 10.8413 6.14611 10.9637 5.93794 10.9984C5.88589 10.9984 5.83385 10.9984 5.78161 10.9984C5.7642 10.9935 5.74717 10.988 5.72957 10.9841C5.44998 10.9234 5.1925 10.6978 5.26528 10.3592C5.31028 10.1498 5.15356 10.008 4.93893 10.0504C4.7693 10.0841 4.62549 10.041 4.50399 9.91953C4.36234 9.77788 4.22068 9.63603 4.07883 9.49457C3.95694 9.37307 3.91312 9.22868 3.94853 9.05983C3.96868 8.96298 3.95655 8.8722 3.88299 8.79942C3.80257 8.71998 3.70533 8.71626 3.59987 8.73622C3.43024 8.7685 3.28918 8.71372 3.17315 8.58615C3.07709 8.4805 3.0313 8.35293 3 8.21774C3.00039 8.1653 3.00039 8.11326 3.00039 8.06121ZM9.55244 6.10526C9.55655 5.93015 9.49629 5.80141 9.38868 5.69361C9.03357 5.33811 8.67924 4.98162 8.32217 4.62808C8.09052 4.39877 7.78413 4.40053 7.5513 4.62964C7.37854 4.79947 7.20773 4.97086 7.03751 5.14323C6.80468 5.379 6.80312 5.6852 7.03575 5.91959C7.38617 6.27255 7.73795 6.62414 8.09071 6.97455C8.32628 7.20856 8.63092 7.21012 8.86726 6.97866C9.04218 6.80747 9.21396 6.63314 9.38673 6.45979C9.48983 6.35609 9.55186 6.23381 9.55244 6.10526ZM6.3492 9.37659C6.35174 9.28053 6.30537 9.20853 6.24042 9.14377C5.782 8.68652 5.32417 8.2285 4.86615 7.77086C4.85147 7.75619 4.83621 7.7421 4.81997 7.72899C4.73369 7.65915 4.63684 7.64408 4.53451 7.68302C4.43179 7.72234 4.37134 7.79943 4.35471 7.90919C4.33905 8.01308 4.37799 8.09722 4.44999 8.16922C4.91349 8.63252 5.3768 9.09603 5.8405 9.55914C5.85694 9.57557 5.87454 9.59162 5.89352 9.60492C5.9892 9.67184 6.09094 9.68162 6.19503 9.6284C6.29657 9.57636 6.34607 9.48968 6.3492 9.37659ZM6.14455 8.66148C6.27916 8.64055 6.37131 8.58439 6.42042 8.4715C6.4707 8.35587 6.45094 8.24493 6.36231 8.15435C6.17487 7.9628 5.98646 7.77243 5.79413 7.58597C5.67028 7.46584 5.49498 7.47014 5.38208 7.58695C5.27095 7.70199 5.27134 7.87143 5.3903 7.99313C5.57559 8.18291 5.76204 8.37191 5.95457 8.55446C6.00544 8.60318 6.08057 8.62646 6.14455 8.66148Z" fill="#FFCC00"/>
</g>
<defs>
<clipPath id="clip0_12564_1198">
<rect width="8" height="8" fill="white" transform="translate(3 3)"/>
</clipPath>
</defs>
</svg>
