<svg width="10" height="10" viewBox="0 0 10 10" fill="none" xmlns="http://www.w3.org/2000/svg">
<g clip-path="url(#clip0_12605_1225)">
<path d="M5.0012 0C2.2425 0 0 2.2425 0 5.0012C0 7.7599 2.2425 10.0024 5.0012 10.0024C7.7575 10.0024 10.0024 7.7599 10.0024 5.0012C10.0024 2.2425 7.7575 0 5.0012 0ZM5.0012 9.27011C2.64586 9.27011 0.729892 7.35414 0.729892 4.9988C0.729892 2.64346 2.64586 0.729892 5.0012 0.729892C7.35654 0.729892 9.27251 2.64586 9.27251 5.0012C9.27011 7.35414 7.35414 9.27011 5.0012 9.27011Z" fill="#3A9EFC"/>
<path d="M6.70373 5.00091H5.12149V2.81124C5.12149 2.60955 4.95823 2.44629 4.75655 2.44629C4.55487 2.44629 4.3916 2.60955 4.3916 2.81124V5.36586C4.3916 5.56754 4.55487 5.7308 4.75655 5.7308H6.70373C6.90541 5.7308 7.06868 5.56754 7.06868 5.36586C7.06868 5.16418 6.90541 5.00091 6.70373 5.00091Z" fill="#3A9EFC"/>
</g>
<defs>
<clipPath id="clip0_12605_1225">
<rect width="10" height="10" fill="white"/>
</clipPath>
</defs>
</svg>
