<svg width="18" height="22" viewBox="0 0 18 22" fill="none" xmlns="http://www.w3.org/2000/svg">
<path d="M17.2887 5.49073C16.8332 4.4175 16.1765 3.44579 15.3556 2.63041C14.5321 1.80766 13.5612 1.15466 12.496 0.707046C11.3879 0.23733 10.2121 0 9 0C7.7879 0 6.6121 0.23733 5.50403 0.704573C4.43226 1.15698 3.47177 1.8047 2.64435 2.62794C1.82401 3.44377 1.16738 4.41538 0.71129 5.48826C0.239516 6.60074 0 7.78245 0 8.99876C0 10.7441 0.408871 12.4821 1.2121 14.1582C1.85806 15.5056 2.76048 16.8183 3.89758 18.0667C5.84032 20.1978 7.87742 21.5006 8.45564 21.8492C8.61977 21.9482 8.80696 22.0003 8.99758 22C9.18629 22 9.37258 21.9506 9.53952 21.8492C10.1177 21.5006 12.1548 20.1978 14.0976 18.0667C15.2347 16.8208 16.1371 15.5056 16.7831 14.1582C17.5911 12.4845 18 10.7491 18 9.00124C18 7.78492 17.7605 6.60321 17.2887 5.49073ZM9 20.1038C7.40564 19.068 1.74194 14.9666 1.74194 9.00124C1.74194 7.0754 2.49435 5.26576 3.86129 3.90111C5.23306 2.53399 7.05726 1.77998 9 1.77998C10.9427 1.77998 12.7669 2.53399 14.1387 3.90358C15.5056 5.26576 16.2581 7.0754 16.2581 9.00124C16.2581 14.9666 10.5944 19.068 9 20.1038ZM9 4.84549C6.64839 4.84549 4.74194 6.79357 4.74194 9.19654C4.74194 11.5995 6.64839 13.5476 9 13.5476C11.3516 13.5476 13.2581 11.5995 13.2581 9.19654C13.2581 6.79357 11.3516 4.84549 9 4.84549ZM10.9161 11.1545C10.6648 11.4121 10.3661 11.6163 10.0373 11.7554C9.70845 11.8946 9.35593 11.966 9 11.9654C8.27661 11.9654 7.59677 11.6761 7.08387 11.1545C6.83183 10.8977 6.63197 10.5925 6.49578 10.2565C6.35959 9.92046 6.28977 9.56024 6.29032 9.19654C6.29032 8.45735 6.57339 7.76267 7.08387 7.23856C7.59677 6.71446 8.27661 6.42769 9 6.42769C9.72339 6.42769 10.4032 6.71446 10.9161 7.23856C11.429 7.76267 11.7097 8.45735 11.7097 9.19654C11.7097 9.93572 11.429 10.6304 10.9161 11.1545Z" fill="#82869E"/>
</svg>
